<?xml version="1.0" encoding="UTF-8" standalone="no"?>
<!DOCTYPE svg PUBLIC "-//W3C//DTD SVG 1.1//EN" "http://www.w3.org/Graphics/SVG/1.1/DTD/svg11.dtd">
<svg width="100%" height="100%" viewBox="0 0 1584 793" version="1.1" xmlns="http://www.w3.org/2000/svg" xmlns:xlink="http://www.w3.org/1999/xlink" xml:space="preserve" xmlns:serif="http://www.serif.com/" style="fill-rule:evenodd;clip-rule:evenodd;stroke-linejoin:round;stroke-miterlimit:2;">
    <g transform="matrix(1,0,0,1,-590.529243,-1898.51227)">
        <g>
            <g transform="matrix(1,0,0,1,-145.435533,412.141137)">
                <g transform="matrix(4.087891,0,0,4.087891,-593,-186)">
                    <path d="M476.416,417.265C477.578,418.059 492.968,422.992 508.195,437.59C508.486,438.312 510.066,442.232 512.915,446.1C513.425,446.792 514.023,446.388 519.178,437.362C520.377,436.401 520.381,436.595 521.501,435.501C535.867,421.455 545.47,420.821 551.536,417.406C551.903,417.662 567.324,427.698 562.355,430.182C523.792,449.457 527.082,475.076 526.78,509.505C526.732,515.052 513.543,517.296 505.523,514.438C498.997,512.112 500.941,508.83 500.735,491.493C500.184,444.923 475.068,436.083 464.708,430.152C460.801,427.915 470.606,420.594 476.416,417.265Z" style="fill:rgb(16,37,44);"/>
                </g>
                <g transform="matrix(4.087891,0,0,4.087891,-593,-186)">
                    <path d="M461.343,445.744C465.824,448.546 485.539,460.876 482.009,508.481C481.515,515.151 459.902,505.901 451.016,494.924C444.657,487.067 434.166,470.712 450.116,444.266C452.429,440.431 453.726,441.213 461.343,445.744Z" style="fill:rgb(0,161,189);"/>
                </g>
                <g transform="matrix(4.087891,0,0,4.087891,-593,-186)">
                    <path d="M578.367,446.578C604.06,495.515 546.765,515.774 545,509.696C544.879,509.277 543.811,486.987 547.372,473.466C553.294,450.98 566.256,444.984 572.709,441.985C576.712,440.124 575.978,442.898 578.367,446.578Z" style="fill:rgb(0,161,189);"/>
                </g>
                <g transform="matrix(4.087891,0,0,4.087891,-593,-186)">
                    <path d="M476.416,417.265C482.041,411.985 495.134,409.321 496.476,409.242C508.492,408.532 509.376,418.936 508.195,437.59C492.968,422.992 477.578,418.059 476.416,417.265Z" style="fill:rgb(0,161,189);"/>
                </g>
                <g transform="matrix(4.087891,0,0,4.087891,-593,-186)">
                    <path d="M551.536,417.406C545.47,420.821 535.867,421.455 521.501,435.501C520.381,436.595 520.377,436.401 519.178,437.362C518.419,421.941 515.665,395.586 551.536,417.406Z" style="fill:rgb(0,161,189);"/>
                </g>
            </g>
            <g transform="matrix(1,0,0,1,-126.375998,339.167409)">
                <g transform="matrix(4.087891,0,0,4.087891,-593,-186)">
                    <path d="M513.42,606.042C490.412,607.439 489.735,605.501 489.09,603.654C488.714,602.577 487.896,554.645 489.554,552.542C491.49,550.087 518.53,547.897 524.214,556.692C531.469,567.917 522.044,574.926 520.795,575.855C517.158,578.56 529.447,577.42 528.785,591.518C528.524,597.084 524.887,600.669 524.275,601.273C520.373,605.12 515.333,605.568 513.42,606.042ZM501.513,559.905C496.316,561.082 498.816,563.155 498.809,568.497C498.808,569.417 498.339,573.366 500.504,573.471C504.151,573.647 518.177,575.405 516.773,565.461C516.34,562.388 513.733,561.07 513.323,560.862C511.429,559.905 502.461,559.905 501.513,559.905ZM508.502,582.081C501.036,582.198 501.083,582.171 500.439,582.208C497.657,582.367 499.007,595.663 499.022,595.709C499.584,597.397 518.623,599.901 518.852,589.508C519.028,581.534 508.682,582.098 508.502,582.081Z" style="fill:rgb(16,37,44);"/>
                </g>
                <g transform="matrix(4.087891,0,0,4.087891,-593,-186)">
                    <path d="M331.227,569.742C330.081,569.696 329.599,569.356 329.661,570.541C330.501,586.581 330.439,586.484 330.116,602.468C330.021,607.17 322.714,607.352 320.994,604.257C320.068,602.591 320.563,559.405 320.608,555.505C320.686,548.698 330.201,550.604 331.284,551.716C332.906,553.38 346.627,581.673 347.063,582.787C347.952,585.063 348.974,583.951 349.92,581.725C350.402,580.59 350.417,580.626 363.361,554.427C366.272,548.535 374.476,550.022 375.523,553.493C376.633,557.171 375.935,557.263 375.868,601.511C375.86,607.275 366.285,609.776 366.308,600.497C366.374,574.571 366.504,573.728 366.86,571.43C368.164,563 362.948,575.361 361.744,577.625C351.8,596.321 353.288,599.27 347.479,598.776C342.803,598.378 331.929,571.551 331.227,569.742Z" style="fill:rgb(0,161,189);"/>
                </g>
                <g transform="matrix(4.087891,0,0,4.087891,-593,-186)">
                    <path d="M642.491,564.07C646.604,564.268 646.724,563.88 650.254,565.896C651.713,566.729 652.595,568.102 653.546,568.117C655.437,568.146 654.075,564.24 660.467,564.823C663.242,565.077 664.429,566.209 663.724,599.506C663.076,630.111 628.491,621.007 629.822,613.556C631.828,602.316 650.905,622.964 654.741,602.499C655.675,597.517 651.29,602.708 650.351,603.251C626.721,616.927 611.153,567.74 642.491,564.07ZM653.715,579.416C647.154,566.5 635.844,574.347 634.928,582.548C632.881,600.878 659.303,601.961 653.715,579.416Z" style="fill:rgb(16,37,44);"/>
                </g>
                <g transform="matrix(4.087891,0,0,4.087891,-593,-186)">
                    <path d="M588.632,604.293C588.419,604.119 585.088,602.154 582.705,597.4C572.034,576.103 594.521,554.772 607.401,567.679C611.896,572.182 605.696,552.515 612.569,550.915C619.921,549.204 619.064,552.932 619.031,560.501C618.839,603.752 619.942,606.016 615.492,606.427C611.44,606.8 609.598,602.54 609.509,602.483C606.834,600.774 604.283,612.011 588.632,604.293ZM600.509,597.912C612.507,596.299 611.388,579.629 605.327,574.717C592.689,564.477 580.316,595.719 600.509,597.912Z" style="fill:rgb(16,37,44);"/>
                </g>
                <g transform="matrix(4.087891,0,0,4.087891,-593,-186)">
                    <path d="M480.049,601.5C479.067,609.722 473.008,605.72 471.866,604.199C469.041,600.44 462.372,612.029 449.734,604.143C433.667,594.119 442.34,557.615 464.334,564.994C467.402,566.023 470.864,570.822 470.704,566.52C470.664,565.442 467.749,547.394 477.626,551.192C481.526,552.691 479.244,567.439 480.049,601.5ZM462.454,598.074C474.211,594.748 472.375,578.797 466.43,574.61C452.354,564.696 441.744,597.579 462.454,598.074Z" style="fill:rgb(0,161,189);"/>
                </g>
                <g transform="matrix(4.087891,0,0,4.087891,-593,-186)">
                    <path d="M693.5,587.955C689.082,587.945 680.346,587.594 679.753,588.649C679.186,589.66 680.857,593.432 682.711,595.287C691.022,603.601 702.231,591.55 704.639,596.421C711,609.287 669.283,614.364 669.178,586.505C669.074,559.114 702.8,557.857 707.106,577.59C710.05,591.079 702.623,588.016 693.5,587.955ZM689.495,572.173C678.979,573.549 678.998,580.815 681.435,580.885C697.681,581.354 698.193,580.834 698.296,579.485C698.784,573.1 690.406,572.264 689.495,572.173Z" style="fill:rgb(16,37,44);"/>
                </g>
                <g transform="matrix(4.087891,0,0,4.087891,-593,-186)">
                    <path d="M435.898,601.5C435.212,609.528 426.645,606.784 426.573,602.495C426.372,590.559 429.357,570.571 417.481,573.402C408.901,575.447 410.82,581.827 410.907,601.506C410.937,608.369 401.269,608.213 401.313,601.5C401.536,567.879 400.305,563.421 407.442,564.771C410.485,565.347 409.879,568.962 412.78,566.987C419.798,562.21 427.214,564.43 430.276,566.795C436.854,571.877 435.943,578.706 435.898,601.5Z" style="fill:rgb(0,161,189);"/>
                </g>
                <g transform="matrix(4.087891,0,0,4.087891,-593,-186)">
                    <path d="M543.928,580.538C543.838,599.771 545.54,607.711 537.581,606.159C534.77,605.611 533.586,604.702 534.397,570.498C534.594,562.206 541.87,564.551 543.086,566.76C545.788,571.667 547.998,561.537 557.345,564.926C559.079,565.555 564.642,575.567 552.471,573.704C545.804,572.684 544.131,579.687 543.928,580.538Z" style="fill:rgb(16,37,44);"/>
                </g>
                <g transform="matrix(4.087891,0,0,4.087891,-593,-186)">
                    <path d="M386.35,605.776C383.621,603.032 384.384,602.483 384.329,579.501C384.322,576.583 382.775,565.665 387.582,564.989C396.136,563.787 393.901,574.833 393.869,581.498C393.779,599.995 396.057,608.162 386.35,605.776Z" style="fill:rgb(0,161,189);"/>
                </g>
                <g transform="matrix(4.087891,0,0,4.087891,-593,-186)">
                    <path d="M574.099,599.508C573.964,605.526 573.482,607.464 567.595,606.152C563.417,605.22 564.987,597.01 564.798,577.498C564.772,574.781 562.292,564.365 570.457,564.807C575.093,565.058 574.041,568.59 574.099,599.508Z" style="fill:rgb(16,37,44);"/>
                </g>
                <g transform="matrix(4.087891,0,0,4.087891,-593,-186)">
                    <path d="M383.885,554.575C384.081,554.131 385.512,550.9 388.513,550.648C391.834,550.368 393.174,552.213 393.422,552.554C398.542,559.604 383.568,566.63 383.885,554.575Z" style="fill:rgb(0,161,189);"/>
                </g>
                <g transform="matrix(4.087891,0,0,4.087891,-593,-186)">
                    <path d="M574.236,553.62C577.195,564.858 560.923,561.485 564.78,553.622C565.442,552.271 570.01,547.236 574.236,553.62Z" style="fill:rgb(16,37,44);"/>
                </g>
            </g>
        </g>
    </g>
</svg>
