<?xml version="1.0" encoding="UTF-8" standalone="no"?>
<!DOCTYPE svg PUBLIC "-//W3C//DTD SVG 1.1//EN" "http://www.w3.org/Graphics/SVG/1.1/DTD/svg11.dtd">
<svg width="100%" height="100%" viewBox="0 0 586 436" version="1.1" xmlns="http://www.w3.org/2000/svg" xmlns:xlink="http://www.w3.org/1999/xlink" xml:space="preserve" xmlns:serif="http://www.serif.com/" style="fill-rule:evenodd;clip-rule:evenodd;stroke-linejoin:round;stroke-miterlimit:2;">
    <g transform="matrix(1,0,0,1,-1067.21007,-1898.51227)">
        <g transform="matrix(1,0,0,1,-145.435533,412.141137)">
            <g transform="matrix(4.087891,0,0,4.087891,-593,-186)">
                <path d="M476.416,417.265C477.578,418.059 492.968,422.992 508.195,437.59C508.486,438.312 510.066,442.232 512.915,446.1C513.425,446.792 514.023,446.388 519.178,437.362C520.377,436.401 520.381,436.595 521.501,435.501C535.867,421.455 545.47,420.821 551.536,417.406C551.903,417.662 567.324,427.698 562.355,430.182C523.792,449.457 527.082,475.076 526.78,509.505C526.732,515.052 513.543,517.296 505.523,514.438C498.997,512.112 500.941,508.83 500.735,491.493C500.184,444.923 475.068,436.083 464.708,430.152C460.801,427.915 470.606,420.594 476.416,417.265Z" style="fill:rgb(16,37,44);"/>
            </g>
            <g transform="matrix(4.087891,0,0,4.087891,-593,-186)">
                <path d="M461.343,445.744C465.824,448.546 485.539,460.876 482.009,508.481C481.515,515.151 459.902,505.901 451.016,494.924C444.657,487.067 434.166,470.712 450.116,444.266C452.429,440.431 453.726,441.213 461.343,445.744Z" style="fill:rgb(0,161,189);"/>
            </g>
            <g transform="matrix(4.087891,0,0,4.087891,-593,-186)">
                <path d="M578.367,446.578C604.06,495.515 546.765,515.774 545,509.696C544.879,509.277 543.811,486.987 547.372,473.466C553.294,450.98 566.256,444.984 572.709,441.985C576.712,440.124 575.978,442.898 578.367,446.578Z" style="fill:rgb(0,161,189);"/>
            </g>
            <g transform="matrix(4.087891,0,0,4.087891,-593,-186)">
                <path d="M476.416,417.265C482.041,411.985 495.134,409.321 496.476,409.242C508.492,408.532 509.376,418.936 508.195,437.59C492.968,422.992 477.578,418.059 476.416,417.265Z" style="fill:rgb(0,161,189);"/>
            </g>
            <g transform="matrix(4.087891,0,0,4.087891,-593,-186)">
                <path d="M551.536,417.406C545.47,420.821 535.867,421.455 521.501,435.501C520.381,436.595 520.377,436.401 519.178,437.362C518.419,421.941 515.665,395.586 551.536,417.406Z" style="fill:rgb(0,161,189);"/>
            </g>
        </g>
    </g>
</svg>
